<svg viewBox="0 0 80 100" xmlns="http://www.w3.org/2000/svg">
  <defs>
    <linearGradient id="ribbonGradient" x1="0%" y1="0%" x2="100%" y2="100%">
      <stop offset="0%" style="stop-color:#E6B366;stop-opacity:1" />
      <stop offset="20%" style="stop-color:#D4A574;stop-opacity:1" />
      <stop offset="50%" style="stop-color:#C8945A;stop-opacity:1" />
      <stop offset="80%" style="stop-color:#B8935A;stop-opacity:1" />
      <stop offset="100%" style="stop-color:#A8804A;stop-opacity:1" />
    </linearGradient>
    <linearGradient id="shadowGradient" x1="0%" y1="0%" x2="100%" y2="100%">
      <stop offset="0%" style="stop-color:#B8935A;stop-opacity:0.8" />
      <stop offset="100%" style="stop-color:#A8804A;stop-opacity:0.9" />
    </linearGradient>
  </defs>
  
  <!-- Main ribbon body with accurate cancer ribbon shape -->
  <!-- Left loop -->
  <path d="M15 25 Q8 20, 5 30 Q3 40, 8 50 Q12 58, 20 55 Q25 52, 23 45 Q21 38, 25 35 Q30 32, 35 35 L40 40" 
        fill="url(#ribbonGradient)" stroke="url(#shadowGradient)" stroke-width="0.5"/>
  
  <!-- Right loop -->  
  <path d="M65 25 Q72 20, 75 30 Q77 40, 72 50 Q68 58, 60 55 Q55 52, 57 45 Q59 38, 55 35 Q50 32, 45 35 L40 40" 
        fill="url(#ribbonGradient)" stroke="url(#shadowGradient)" stroke-width="0.5"/>
  
  <!-- Center crossing point -->
  <ellipse cx="40" cy="40" rx="6" ry="4" fill="url(#ribbonGradient)" stroke="url(#shadowGradient)" stroke-width="0.5"/>
  
  <!-- Bottom left tail -->
  <path d="M35 35 L40 40 L37 75 Q35 85, 30 80 Q28 75, 32 70 Z" 
        fill="url(#ribbonGradient)" stroke="url(#shadowGradient)" stroke-width="0.5"/>
  
  <!-- Bottom right tail -->
  <path d="M45 35 L40 40 L43 75 Q45 85, 50 80 Q52 75, 48 70 Z" 
        fill="url(#ribbonGradient)" stroke="url(#shadowGradient)" stroke-width="0.5"/>
  
  <!-- Add subtle shadow for depth -->
  <ellipse cx="40" cy="85" rx="25" ry="3" fill="rgba(184, 147, 90, 0.2)" opacity="0.3"/>
</svg>