<?xml version="1.0" encoding="UTF-8"?>
<svg id="Layer_1" xmlns="http://www.w3.org/2000/svg" version="1.1" viewBox="0 0 1024 1024">
  <!-- Generator: Adobe Illustrator 29.6.1, SVG Export Plug-In . SVG Version: 2.1.1 Build 9)  -->
  <defs>
    <style>
      .st0 {
        fill: #e3b864;
      }

      .st1 {
        fill: #fff;
      }
    </style>
  </defs>
  <path class="st0" d="M598.9,391.9c-1.3,24.8-9.5,56.1-18,79.5s-10.3,21-11,27.5l-17.8,29.7c-.2,1.2,12.2,18.5,14,20.6s1.6,2.8,3.8,2.7c.4,3.6,7,12.5,9.6,15.9,11.9,15.6,25.6,30.5,38.4,45.1s26.7,28.5,39.5,43c3.7,4.2,9.7,9.5,8.4,15.4l-14.9,84.6c-35.8-38.4-70.5-80.9-97.2-126.3-9-15.3-16.2-31.5-25.3-46.7-1.5-.3-2.6,1.7-3.3,2.7-12,17.1-20.7,39.8-32.7,57.3-2.8,4.2-9.1,4.8-13.9,5.1s-23.2.8-27.3-1.8-9-20.3-11.3-26.2c12.7-16.8,22.8-35.3,34-53s1.8-1.5,2.6-2.8c7.9-12.5,15.9-24.9,23.3-37.7-12.5-24.1-23.9-48.7-30.9-75.1-13.6-51.8-21.5-151,54.4-154.5,57-2.6,78.2,45.1,75.5,95ZM521.7,338.2c-27.7,3.2-31.2,26.6-29.8,50.3,1.8,29.8,12.8,63.6,27.5,89.5s4.9,9.5,7,9c4.2-1,27-54.9,29.6-62.5,11.8-35.1,22.8-92.8-34.3-86.3Z"/>
  <path class="st1" d="M777.7,388.2c47.2-2,99.3,18.1,115.2,66.2,2.6,7.9,8.5,22.8-3.6,24.4s-32.3,1-41.9.1c-1.8-.2-5.3-.5-6.7-1.3-2.6-1.3-7-13.1-9.3-16.7-22.6-34.5-77-35.5-100.2-1.4-22.4,32.8-21.4,104.5,9.8,131.8s68.4,17.6,88.4-7.6c3.7-4.6,9.7-19.3,13.5-20.5,14.8.5,33.1-2.2,47.6-.5,10.3,1.2,5.6,13.1,3.7,19.8-10.2,35.9-44.6,60-80.1,66.9-76.1,14.8-145.4-23.3-155.1-103.3-10-82.9,29.7-154.4,118.7-158.1Z"/>
  <path class="st1" d="M473.9,566.9c-11.2,17.7-21.3,36.2-34,53-15.8-42.2-28.6-86-44-128.5-1.8-5-3.5-11.9-7-15.5v166.5c0,2.3-5.3,5.1-7.6,5.4-7.3,1.1-28.2.8-36,.1-4.3-.4-8-1.1-9.2-5.8l.2-245.3c1.2-2.9,3.8-4.9,7-5,20.9,1.5,44.5-1.9,65.1,0,3.4.3,6.2.7,8.5,3.5,20.5,56.7,37.7,114.5,57,171.5Z"/>
  <path class="st1" d="M198.9,598.9h98.5c.3,0,4.5,2.5,5,3,1.5,1.7,1.4,3.4,1.6,5.4.7,7.3,1,27.1-.1,34s-2.5,5.3-5.9,6.1l-145.6.5c-7.2-.7-8.8-2.3-9.5-9.5l.3-240.8c.9-4.1,5.5-5.4,9.2-5.8,8.3-.8,32.2-1.1,40,.1s6.6,3.4,6.6,5.4v201.5Z"/>
  <path class="st1" d="M617.9,612.9c-12.7-14.6-26.5-29.5-38.4-45.1-2.6-3.4-9.2-12.3-9.6-15.9-1.4-11.2-1.2-41.7,0-53s8.4-20.2,11-27.5c8.5-23.4,16.7-54.7,18-79.5,7.1.3,18.1-2.3,19,7.5v213.5Z"/>
</svg>